<svg width="24" height="24" viewBox="0 0 24 24" fill="none" xmlns="http://www.w3.org/2000/svg">
<path d="M12.2934 2.39966C12.9342 2.40326 14.5375 2.41886 16.2416 2.48726L16.8464 2.51366C18.5613 2.59407 20.275 2.73327 21.1259 2.96969C22.2599 3.2889 23.1504 4.21775 23.4516 5.39621C23.9316 7.2683 23.9916 10.9189 23.9988 11.8033L24 11.9857V12.1945C23.9916 13.079 23.9316 16.7308 23.4516 18.6017C23.1468 19.7837 22.2551 20.7138 21.1259 21.0282C20.275 21.2646 18.5613 21.4038 16.8464 21.4842L16.2416 21.5118C14.5375 21.579 12.9342 21.5958 12.2934 21.5982L12.0114 21.5994H11.7054C10.3493 21.591 4.67783 21.5298 2.87294 21.0282C1.74009 20.709 0.848442 19.7801 0.547228 18.6017C0.0672035 16.7296 0.00720036 13.079 0 12.1945V11.8033C0.00720036 10.9189 0.0672035 7.2671 0.547228 5.39621C0.852043 4.21415 1.74369 3.2841 2.87414 2.97089C4.67783 2.46806 10.3505 2.40686 11.7066 2.39966H12.2934ZM9.59928 7.79993V16.2003L16.7996 12.0001L9.59928 7.79993Z" fill="#F1E8D9"/>
</svg>
